<svg viewBox="0 0 18 18"  xmlns="http://www.w3.org/2000/svg"><path fill="#6A727C" d="M0 0h18v18H0z"/><path d="M7 6c-.94.042-3.448.431-5.266 1.657.092-.01.277-.05.535-.107.768-.168 2.186-.478 3.731-.557v1.88c-2.229.316-4.022.919-4.714 1.509C2.678 10.049 4.29 9.823 6 9.707V12l1 1V9.651c1.31-.056 2.661-.05 4 .017V13l1-1V9.73c1.643.123 3.248.34 4.714.652-1.383-.82-3.023-1.305-4.714-1.545V6.984c1.534.07 2.96.39 3.732.563.26.058.444.1.536.11C14.45 6.43 11.94 6.042 11 6v2.723a22.082 22.082 0 00-4 .03V6z" fill="#fff"/></svg>