<!-- by TradingView --><svg width="18" height="18" xmlns="http://www.w3.org/2000/svg"><path fill="#1D9E6A" d="M0 0h18v18H0z"/><path d="M9.512 6.468l-4.756 5.178a3.367 3.367 0 01-.197-.352l4.984-4.977c.032-.026.12-.103.094-.067a2.302 2.302 0 00-.125.218zm-.129.627l-3.085 6.117c.104.067.212.135.321.192L9.393 7.27c-.005-.057-.01-.114-.01-.176zm.062-.446c-.005-.005-.015.02-.036.047l-4.11 5.666c.093.104.187.197.29.29l3.815-5.79a1.54 1.54 0 01.041-.213zm2.67 1.405l1.776-.01c-.02-.094-.041-.234-.062-.327l-1.646.249a.992.992 0 01-.067.088zm-1.469.55l1.74 4.064a6.33 6.33 0 00.258-.26L10.739 8.62l-.093-.016zm1.672-.882a.04.04 0 00.02-.01l1.191-.814a9.816 9.816 0 00-.17-.322l-.974.965c-.015.067-.041.124-.067.181zm-.43.565l-.067.052 2.158.964c.006-.093.021-.228.021-.321l-2.112-.695zM9.445 7.53l-1.967 6.237c.124.041.249.072.373.103l1.64-6.2-.046-.14zm1.61 1.094l2.117 3.11c.057-.093.145-.227.196-.32l-2.236-2.8c-.02.005-.046.005-.077.01zm.404-.093l2.277 2.037c.031-.093.078-.238.103-.337L11.531 8.5a1.01 1.01 0 00-.072.03zm-1.201-.052l1.04 4.961a5.2 5.2 0 00.337-.192L10.34 8.52a.623.623 0 00-.083-.041zm-.352-.233l.165 5.64c.13-.031.26-.062.389-.098l-.466-5.47c-.036-.026-.062-.052-.088-.072zm-1.139 5.749c.073.005.15.005.228.005.052 0 .103 0 .16-.005L9.7 8.023c-.026-.031-.047-.068-.073-.104l-.859 6.076zm2.03-8.44h.02c.03 0 .067-.005.098-.005.849 0 1.537.69 1.537 1.54 0 .088-.01.176-.02.264.015 0 .03-.01.036-.02l.383-1.483c-.078-.094-.176-.223-.264-.311l-.12 1.062a1.987 1.987 0 00-.113-.264.853.853 0 00-.078-.13l-.377-1.27a5.408 5.408 0 00-.404-.264l.492 1.197c-.088-.083-.176-.155-.223-.197l-1.035-1.363a5.373 5.373 0 00-.513-.16l1.263 1.42-.03-.005-2.04-1.545A5.399 5.399 0 008.995 4c-.036 0-.078 0-.114.005l2.013 1.348-2.8-1.27a6.43 6.43 0 00-.47.109l3.032 1.192-3.835-.886a4.85 4.85 0 00-.425.233l3.888.71-4.576-.202a5.488 5.488 0 00-.352.342l4.746-.026-5.258.674c-.088.13-.166.265-.244.4l5.347-.934-5.709 1.783c-.041.13-.078.26-.109.394l5.7-2.032L4.01 8.738c-.005.088-.005.176-.005.265 0 .036-.005.119-.005.155l5.75-3.162-5.641 4.038c.026.13.062.254.098.384l5.528-4.303c.026-.031.057-.062.083-.093.062-.057.15-.135.248-.208.202-.145.507-.238.73-.259z" fill="#fff"/></svg>