<svg viewBox="0 0 18 18" xmlns="http://www.w3.org/2000/svg"><path fill="#4C83C3" d="M0 0h18v18H0z"/><circle cx="10.498" cy="5" r="1" fill="#fff"/><circle cx="7.502" cy="5" r="1" fill="#fff"/><path d="M7.268 8h3.464a2 2 0 00-3.464 0zM11 9H7v1h4V9zm0 2H7v1h4v-1zm-.268 2H7.268a2 2 0 003.464 0zM3.538 10.41L6 8v3.587C5.972 12.372 5.31 13 4.5 13c-.828 0-1.5-.656-1.5-1.466 0-.452.21-.856.538-1.125zM14.462 10.41L12 8v3.587c.028.785.69 1.413 1.5 1.413.828 0 1.5-.656 1.5-1.466 0-.452-.21-.856-.538-1.125z" fill="#fff"/></svg>