<!-- by TradingView --><svg width="18" height="18" xmlns="http://www.w3.org/2000/svg"><path fill="#08090D" d="M0 0h18v18H0z"/><path d="M12.304 5.487c-3.26.971-4.882 2.839-6.063 3.87l.094.383c2.469-2.525 4.315-3.519 5.883-3.963l.086-.29z" fill="#EEB111"/><path d="M13.44 5l-1.856 8.5h-1.29L8.783 7.31 7.371 13.5H6.098L4 5h1.197l1.481 6.167L8.196 5h1.049l1.62 6.167L12.39 5h1.05z" fill="#fff"/><path d="M14.287 5.628c-.203-.184-.479-.248-.93-.23l-.084.345c.187.02.447.113.546.204.6.546-.894 2.328-3.335 3.983-2.444 1.65-4.912 2.548-5.512 2.002-.313-.283-.269-.657.389-1.416l-.09-.357c-.814.951-1.2 1.865-.782 2.245.763.693 3.734-.126 6.49-1.991 2.754-1.862 4.069-4.093 3.308-4.785z" fill="#EEB111"/></svg>