<svg width="100" height="100" xmlns="http://www.w3.org/2000/svg">

 <g>
  <title>Layer 1</title>
  <path stroke="null" id="svg_1" d="m0,0l51,0l0,51l-51,0l0,-51z" fill="#030365"/>
  <path stroke="null" id="svg_2" fill="#fff" d="m34.53786,23.54264l0,-12.76987c0,-3.25852 -1.04071,-5.59232 -3.08857,-7.04545c-1.67857,-1.14489 -4.02857,-1.71733 -7.05,-1.71733c-3.02143,0 -5.37143,0.61648 -7.05,1.98153c-1.94714,1.49716 -2.92071,3.91903 -2.92071,7.13351l0,12.6818c-5.77429,1.32102 -10.50786,3.61079 -13.42857,5.59232c21.41857,-7.57385 40.25215,-3.17045 47,0a49.88715,65.43458 0 0 0 -13.46214,-5.76846l0,-0.08807zm-10.07143,-2.81818l1.47714,0l0,-9.95169c0,-0.70454 -0.10071,-1.23295 -0.33571,-1.58523a1.44357,1.89346 0 0 0 -1.10786,-0.52841a1.54429,2.02557 0 0 0 -1.07429,0.57244c-0.26857,0.35227 -0.40286,0.88068 -0.40286,1.58523l0,9.90766l1.44357,0zm10.07143,16.64487c0,3.21448 -1.04071,5.54829 -3.08857,7.04545c-1.645,1.18892 -3.96143,1.58523 -7.05,1.58523c-3.02143,0 -5.37143,-0.44034 -7.05,-1.71733c-1.91357,-1.54119 -2.92071,-3.96306 -2.92071,-7.30965l0,-8.05823l8.59429,-1.71733l0,10.12783c0,0.70454 0.10071,1.27699 0.33571,1.67329c0.235,0.35227 0.63786,0.52841 1.14143,0.52841c0.50357,0 0.83929,-0.17614 1.10786,-0.52841c0.235,-0.44034 0.33571,-0.96875 0.33571,-1.67329l0,-8.71874l8.62786,0l0,8.80681l-0.03357,-0.04403z" fill-rule="evenodd"/>
 </g>
</svg>