<?xml version="1.0" encoding="UTF-8"?>

<svg width="530" height="530.66435" xmlns="http://www.w3.org/2000/svg">

 <g>
  <title>Layer 1</title>
  <path id="svg_1" d="m452.32422,222.67578l-13.75,0l0,-23.74609c0,-6.21094 -5.03516,-11.25 -11.25,-11.25l-20.30469,0l0,-10.19531c0,-6.21094 -5.03515,-11.25 -11.25,-11.25c-6.21094,0 -11.25,5.03906 -11.25,11.25l0,10.19531l-20.89844,0c-6.21093,0 -11.25,5.03906 -11.25,11.25l0,23.74609l-13.94531,0l0,-114.90625c0,-6.21484 -5.03515,-11.25 -11.25,-11.25l-25.55859,0l0,-31.10156c0,-6.21484 -5.03516,-11.24609 -11.25,-11.24609l-58.33203,0l0,-42.92188c0,-6.21094 -5.03516,-11.25 -11.25,-11.25c-6.21094,0 -11.25,5.03906 -11.25,11.25l0,42.92188l-55.87891,0c-6.21484,0 -11.25,5.03125 -11.25,11.24609l0,31.10156l-25.55859,0c-6.21485,0 -11.25,5.03516 -11.25,11.25l0,378.48047c0,6.21484 5.03515,11.24609 11.25,11.24609l335.46875,0c6.21093,0 11.25,-5.03125 11.25,-11.24609l0,-252.32422c0,-6.21094 -5.03125,-11.24219 -11.24219,-11.25zm-287.41797,-146.00781l114.21484,0l0,19.85156l-114.21484,0l0,-19.85156zm87.92188,398.33984l-20.79297,0l0,-61.26172l20.79297,0l0,61.26172zm-43.29297,0l-18.33985,0l0,-61.26172l18.33985,0l0,61.26172zm106.39453,0l-40.60547,0l0,-72.51172c0,-6.21484 -5.03125,-11.25 -11.24609,-11.25l-84.12891,0c-6.21484,0 -11.25,5.03516 -11.25,11.25l0,72.50391l-40.60156,0l0,-355.98047l187.83203,0l0,355.98828zm58.9375,-264.82031l41.20703,0l0,12.5l-41.20703,0l0,-12.5zm66.20703,264.82031l-102.64844,0l0,-229.83203l102.64844,0l0,229.83203zm0,0"/>
  <path id="svg_2" d="m159.53906,227.48047l124.98828,0c6.21875,0 11.25,-5.03906 11.25,-11.25c0,-6.20703 -5.03125,-11.24609 -11.25,-11.24609l-124.98828,0c-6.21094,0 -11.25,5.03906 -11.25,11.24609c0,6.21094 5.03906,11.25 11.25,11.25zm0,0"/>
  <path id="svg_3" d="m159.53906,284.97656l124.98828,0c6.21875,0 11.25,-5.03906 11.25,-11.25c0,-6.21093 -5.03125,-11.25 -11.25,-11.25l-124.98828,0c-6.21094,0 -11.25,5.03907 -11.25,11.25c0,6.21094 5.03906,11.25 11.25,11.25zm0,0"/>
  <path id="svg_4" d="m159.53906,342.47266l124.98828,0c6.21875,0 11.25,-5.03907 11.25,-11.25c0,-6.21094 -5.03125,-11.25 -11.25,-11.25l-124.98828,0c-6.21094,0 -11.25,5.03906 -11.25,11.25c0,6.21093 5.03906,11.25 11.25,11.25zm0,0"/>
  <path id="svg_5" d="m159.53906,169.98438l124.98828,0c6.21875,0 11.25,-5.03907 11.25,-11.2461c0,-6.21094 -5.03125,-11.25 -11.25,-11.25l-124.98828,0c-6.21094,0 -11.25,5.03906 -11.25,11.25c0,6.20703 5.03906,11.2461 11.25,11.2461zm0,0"/>
  <path id="svg_6" d="m362.02344,341.22266l53.74609,0c6.21485,0 11.2461,-5.03907 11.2461,-11.25c0,-6.21094 -5.03125,-11.25 -11.2461,-11.25l-53.74609,0c-6.21094,0 -11.25,5.03906 -11.25,11.25c0,6.21093 5.03906,11.25 11.25,11.25zm0,0"/>
  <path id="svg_7" d="m362.02344,388.71875l53.74609,0c6.21485,0 11.2461,-5.03906 11.2461,-11.25s-5.03125,-11.25 -11.2461,-11.25l-53.74609,0c-6.21094,0 -11.25,5.03906 -11.25,11.25s5.03906,11.25 11.25,11.25zm0,0"/>
  <path id="svg_8" d="m415.76953,417.46484l-53.74609,0c-6.21094,0 -11.25,5.03907 -11.25,11.25c0,6.21094 5.03906,11.25 11.25,11.25l53.74609,0c6.21484,0 11.24609,-5.03906 11.24609,-11.25c0,-6.21093 -5.03125,-11.25 -11.24609,-11.25zm0,0"/>
  <path id="svg_9" d="m362.02344,289.97656l53.74609,0c6.21485,0 11.2461,-5.03906 11.2461,-11.25c0,-6.21093 -5.03125,-11.25 -11.2461,-11.25l-53.74609,0c-6.21094,0 -11.25,5.03907 -11.25,11.25c0,6.21094 5.03906,11.25 11.25,11.25zm0,0"/>
 </g>
</svg>