<?xml version="1.0" encoding="UTF-8" standalone="no"?> <svg height="530pt" viewBox="-33 -16 530 530.66435" width="530pt" xmlns="http://www.w3.org/2000/svg"><path d="m452.324219 222.675781h-13.75v-23.746093c0-6.210938-5.035157-11.25-11.25-11.25h-20.304688v-10.195313c0-6.210937-5.035156-11.25-11.25-11.25-6.210937 0-11.25 5.039063-11.25 11.25v10.195313h-20.898437c-6.210938 0-11.25 5.039062-11.25 11.25v23.746093h-13.945313v-114.90625c0-6.214843-5.035156-11.25-11.25-11.25h-25.558593v-31.101562c0-6.214844-5.035157-11.246094-11.25-11.246094h-58.332032v-42.921875c0-6.210938-5.035156-11.25-11.25-11.25-6.210937 0-11.25 5.039062-11.25 11.25v42.921875h-55.878906c-6.214844 0-11.25 5.03125-11.25 11.246094v31.101562h-25.558594c-6.214844 0-11.25 5.035157-11.25 11.25v378.480469c0 6.214844 5.035156 11.246094 11.25 11.246094h335.46875c6.210938 0 11.25-5.03125 11.25-11.246094v-252.324219c0-6.210937-5.03125-11.242187-11.242187-11.25zm-287.417969-146.007812h114.214844v19.851562h-114.214844zm87.921875 398.339843h-20.792969v-61.261718h20.792969zm-43.292969 0h-18.339844v-61.261718h18.339844zm106.394532 0h-40.605469v-72.511718c0-6.214844-5.03125-11.25-11.246094-11.25h-84.128906c-6.214844 0-11.25 5.035156-11.25 11.25v72.503906h-40.601563v-355.980469h187.832032zm58.9375-264.820312h41.207031v12.5h-41.207031zm66.207031 264.820312h-102.648438v-229.832031h102.648438zm0 0"/><path d="m159.539062 227.480469h124.988282c6.21875 0 11.25-5.039063 11.25-11.25 0-6.207031-5.03125-11.246094-11.25-11.246094h-124.988282c-6.210937 0-11.25 5.039063-11.25 11.246094 0 6.210937 5.039063 11.25 11.25 11.25zm0 0"/><path d="m159.539062 284.976562h124.988282c6.21875 0 11.25-5.039062 11.25-11.25 0-6.210937-5.03125-11.25-11.25-11.25h-124.988282c-6.210937 0-11.25 5.039063-11.25 11.25 0 6.210938 5.039063 11.25 11.25 11.25zm0 0"/><path d="m159.539062 342.472656h124.988282c6.21875 0 11.25-5.039062 11.25-11.25 0-6.210937-5.03125-11.25-11.25-11.25h-124.988282c-6.210937 0-11.25 5.039063-11.25 11.25 0 6.210938 5.039063 11.25 11.25 11.25zm0 0"/><path d="m159.539062 169.984375h124.988282c6.21875 0 11.25-5.039063 11.25-11.246094 0-6.210937-5.03125-11.25-11.25-11.25h-124.988282c-6.210937 0-11.25 5.039063-11.25 11.25 0 6.207031 5.039063 11.246094 11.25 11.246094zm0 0"/><path d="m362.023438 341.222656h53.746093c6.214844 0 11.246094-5.039062 11.246094-11.25 0-6.210937-5.03125-11.25-11.246094-11.25h-53.746093c-6.210938 0-11.25 5.039063-11.25 11.25 0 6.210938 5.039062 11.25 11.25 11.25zm0 0"/><path d="m362.023438 388.71875h53.746093c6.214844 0 11.246094-5.039062 11.246094-11.25s-5.03125-11.25-11.246094-11.25h-53.746093c-6.210938 0-11.25 5.039062-11.25 11.25s5.039062 11.25 11.25 11.25zm0 0"/><path d="m415.769531 417.464844h-53.746093c-6.210938 0-11.25 5.039062-11.25 11.25 0 6.210937 5.039062 11.25 11.25 11.25h53.746093c6.214844 0 11.246094-5.039063 11.246094-11.25 0-6.210938-5.03125-11.25-11.246094-11.25zm0 0"/><path d="m362.023438 289.976562h53.746093c6.214844 0 11.246094-5.039062 11.246094-11.25 0-6.210937-5.03125-11.25-11.246094-11.25h-53.746093c-6.210938 0-11.25 5.039063-11.25 11.25 0 6.210938 5.039062 11.25 11.25 11.25zm0 0"/><path d="m79.472656 176.824219-19.652344-3.050781-8.625-17.917969c-1.445312-2.996094-4.46875-4.921875-7.796874-4.949219-3.328126-.011719-6.375 1.84375-7.890626 4.796875l-8.976562 17.75-19.707031 2.671875c-3.300781.441406-6.0625 2.722656-7.121094 5.882812-1.0625 3.152344-.238281 6.636719 2.121094 8.988282l14.105469 14.019531-3.550782 19.566406c-.59375 3.273438.722656 6.605469 3.398438 8.59375 2.675781 1.980469 6.246094 2.273438 9.207031.75l17.691406-9.082031 17.511719 9.425781c2.933594 1.578125 6.507812 1.355469 9.222656-.578125 2.710938-1.933594 4.089844-5.234375 3.558594-8.523437l-3.171875-19.632813 14.371094-13.75c2.410156-2.300781 3.300781-5.765625 2.300781-8.945312-.996094-3.175782-3.710938-5.511719-7-6.019532zm-25.085937 19.242187c-2.085938 1.992188-3.050781 4.878906-2.59375 7.71875l1.082031 6.675782-5.957031-3.203126c-2.535157-1.367187-5.578125-1.394531-8.140625-.078124l-6.015625 3.085937 1.210937-6.648437c.515625-2.839844-.398437-5.742188-2.441406-7.769532l-4.792969-4.765625 6.695313-.90625c2.855468-.386719 5.335937-2.152343 6.632812-4.722656l3.050782-6.03125 2.9375 6.089844c1.242187 2.59375 3.6875 4.410156 6.535156 4.847656l6.679687 1.035156zm0 0"/><path d="m79.472656 282.441406-19.652344-3.050781-8.625-17.917969c-1.445312-2.996094-4.46875-4.917968-7.796874-4.949218-3.332032-.035157-6.394532 1.828124-7.890626 4.796874l-8.976562 17.75-19.707031 2.667969c-3.300781.445313-6.0625 2.726563-7.121094 5.882813-1.0625 3.15625-.238281 6.640625 2.121094 8.988281l14.105469 14.023437-3.550782 19.5625c-.59375 3.277344.722656 6.609376 3.398438 8.59375 2.675781 1.984376 6.246094 2.277344 9.207031.753907l17.691406-9.082031 17.511719 9.421874c2.933594 1.582032 6.507812 1.359376 9.222656-.574218 2.710938-1.933594 4.089844-5.234375 3.558594-8.527344l-3.171875-19.628906 14.371094-13.75c2.410156-2.300782 3.300781-5.765625 2.300781-8.945313-.996094-3.179687-3.710938-5.511719-7-6.019531zm-25.085937 19.246094c-2.085938 1.992188-3.050781 4.878906-2.59375 7.71875l1.082031 6.675781-5.957031-3.203125c-2.535157-1.367187-5.578125-1.394531-8.140625-.078125l-6.015625 3.085938 1.210937-6.648438c.515625-2.832031-.398437-5.738281-2.441406-7.769531l-4.792969-4.765625 6.695313-.90625c2.855468-.386719 5.335937-2.152344 6.632812-4.722656l3.050782-6.03125 2.9375 6.089843c1.242187 2.59375 3.6875 4.410157 6.535156 4.847657l6.679687 1.039062zm0 0"/><path d="m79.472656 388.058594-19.652344-3.050782-8.625-17.917968c-1.445312-3-4.46875-4.921875-7.796874-4.953125h-.085938c-3.300781 0-6.316406 1.855469-7.804688 4.800781l-8.976562 17.746094-19.707031 2.671875c-3.300781.445312-6.0625 2.722656-7.121094 5.882812-1.0625 3.15625-.238281 6.640625 2.121094 8.988281l14.105469 14.023438-3.550782 19.5625c-.59375 3.277344.722656 6.605469 3.398438 8.59375 2.675781 1.984375 6.246094 2.277344 9.207031.753906l17.691406-9.082031 17.511719 9.421875c2.933594 1.582031 6.507812 1.359375 9.222656-.574219 2.710938-1.933593 4.089844-5.234375 3.558594-8.527343l-3.171875-19.632813 14.371094-13.746094c2.410156-2.300781 3.300781-5.765625 2.300781-8.945312-.996094-3.179688-3.710938-5.511719-7-6.019531zm-25.085937 19.246094c-2.085938 1.992187-3.050781 4.878906-2.59375 7.71875l1.082031 6.675781-5.957031-3.203125c-2.535157-1.367188-5.578125-1.398438-8.140625-.078125l-6.015625 3.085937 1.210937-6.652344c.515625-2.828124-.398437-5.734374-2.441406-7.765624l-4.792969-4.765626 6.695313-.910156c2.855468-.382812 5.335937-2.152344 6.632812-4.71875l3.050782-6.03125 2.9375 6.089844c1.242187 2.59375 3.6875 4.40625 6.535156 4.847656l6.679687 1.039063zm0 0"/><path d="m79.472656 76.835938-19.652344-3.054688-8.625-17.917969c-1.445312-2.996093-4.46875-4.921875-7.796874-4.949219h-.085938c-3.300781 0-6.316406 1.855469-7.804688 4.800782l-8.976562 17.746094-19.707031 2.671874c-3.300781.441407-6.0625 2.722657-7.121094 5.882813-1.0625 3.152344-.238281 6.640625 2.121094 8.988281l14.105469 14.023438-3.550782 19.5625c-.59375 3.277344.722656 6.605468 3.398438 8.59375 2.675781 1.980468 6.246094 2.273437 9.207031.75l17.691406-9.082032 17.511719 9.425782c2.933594 1.582031 6.507812 1.355468 9.222656-.578125 2.710938-1.933594 4.089844-5.234375 3.558594-8.523438l-3.171875-19.632812 14.371094-13.75c2.410156-2.296875 3.300781-5.765625 2.300781-8.945313-.996094-3.175781-3.710938-5.511718-7-6.019531zm-25.085937 19.238281c-2.085938 1.992187-3.050781 4.878906-2.59375 7.722656l1.082031 6.671875-5.957031-3.203125c-2.535157-1.367187-5.578125-1.394531-8.140625-.078125l-6.015625 3.085938 1.210937-6.648438c.515625-2.835938-.398437-5.742188-2.441406-7.769531l-4.792969-4.765625 6.695313-.90625c2.855468-.386719 5.335937-2.152344 6.632812-4.722656l3.050782-6.027344 2.9375 6.085937c1.242187 2.59375 3.6875 4.410157 6.535156 4.847657l6.679687 1.035156zm0 0"/></svg>