<?xml version="1.0" encoding="utf-8"?>
<!-- Generator: Adobe Illustrator 23.0.3, SVG Export Plug-In . SVG Version: 6.00 Build 0)  -->
<svg version="1.1" id="Layer_1" xmlns="http://www.w3.org/2000/svg" xmlns:xlink="http://www.w3.org/1999/xlink" x="0px" y="0px"
	 viewBox="0 0 608 608" style="enable-background:new 0 0 608 608;" xml:space="preserve">
<style type="text/css">
	.st0{fill:url(#SVGID_1_);}
</style>
<linearGradient id="SVGID_1_" gradientUnits="userSpaceOnUse" x1="44.2431" y1="303.9999" x2="561.6061" y2="303.9999">
	<stop  offset="0" style="stop-color:#804D85"/>
	<stop  offset="1" style="stop-color:#41BDBD"/>
</linearGradient>
<path class="st0" d="M467.9,256.8H457v-28.3c0-6.2-5-11.2-11.3-11.2h-20.3v-10.2c0-6.2-5-11.2-11.2-11.2c-6.2,0-11.3,5-11.3,11.2
	v10.2H382c-6.2,0-11.3,5-11.3,11.2v28.3h-10.1v-37.2c0-6.2-5-11.2-11.2-11.2h-23.6v-28.8c0-6.2-5-11.2-11.2-11.2h-54.6V152
	c0-6.2-5-11.2-11.2-11.2c-6.2,0-11.2,5-11.2,11.2v16.4h-52.3c-6.2,0-11.3,5-11.3,11.3v28.8h-23.6c-6.2,0-11.2,5-11.2,11.2v358.1
	c0,6.2,5,11.2,11.2,11.2h317.4c6.2,0,11.3-5,11.3-11.2V268.1C479.1,261.9,474.1,256.8,467.9,256.8z M196.5,190.8h106.9v17.6H196.5
	L196.5,190.8z M278.5,566.5h-18.5v-56.8h18.5V566.5z M237.6,566.5h-16.1v-56.8h16.1V566.5z M338.2,566.5H301v-68
	c0-6.2-5-11.3-11.3-11.3h-79.6c-6.2,0-11.3,5-11.3,11.3v68h-37.2V230.9h176.5V566.5z M393.3,239.8h41.2v17h-41.2V239.8z
	 M456.6,566.5h-95.9V279.3h95.9L456.6,566.5z M190.9,333.5h118.3c6.2,0,11.2-5,11.2-11.3c0-6.2-5-11.2-11.2-11.2H190.9
	c-6.2,0-11.2,5-11.2,11.2C179.6,328.5,184.7,333.5,190.9,333.5z M190.9,387.9h118.3c6.2,0,11.2-5,11.2-11.2c0-6.2-5-11.2-11.2-11.2
	H190.9c-6.2,0-11.2,5-11.2,11.2C179.6,382.9,184.7,387.9,190.9,387.9z M190.9,442.3h118.3c6.2,0,11.2-5,11.2-11.3
	c0-6.2-5-11.2-11.2-11.2H190.9c-6.2,0-11.2,5-11.2,11.2C179.6,437.3,184.7,442.3,190.9,442.3z M190.9,279.1h118.3
	c6.2,0,11.2-5,11.2-11.2c0-6.2-5-11.2-11.2-11.2H190.9c-6.2,0-11.2,5-11.2,11.2C179.6,274.1,184.7,279.1,190.9,279.1z M382.4,441.1
	h50.9c6.2,0,11.3-5,11.3-11.2c0-6.2-5-11.2-11.3-11.2h-50.9c-6.2,0-11.2,5-11.2,11.2C371.2,436.1,376.2,441.1,382.4,441.1z
	 M382.4,486.1h50.9c6.2,0,11.3-5,11.3-11.3c0-6.2-5-11.2-11.3-11.2h-50.9c-6.2,0-11.2,5-11.2,11.2
	C371.2,481,376.2,486.1,382.4,486.1z M433.3,512.1h-50.9c-6.2,0-11.2,5-11.2,11.3c0,6.2,5,11.2,11.2,11.2h50.9
	c6.2,0,11.3-5,11.3-11.2C444.5,517.1,439.5,512.1,433.3,512.1z M382.4,392.7h50.9c6.2,0,11.3-5,11.3-11.2c0-6.2-5-11.2-11.3-11.2
	h-50.9c-6.2,0-11.2,5-11.2,11.2C371.2,387.6,376.2,392.7,382.4,392.7z M359.7,55.6c-1-3.2-3.7-5.5-7-6l-24-3.7L318.1,24
	c-1.4-3-4.5-4.9-7.8-5h-0.1c-3.3,0-6.3,1.9-7.8,4.8l-11,21.7l-24.1,3.3c-3.3,0.4-6.1,2.7-7.1,5.9c-1.1,3.2-0.2,6.6,2.1,9l17.2,17.1
	l-4.3,23.9c-0.6,3.3,0.7,6.6,3.4,8.6c2.7,2,6.2,2.3,9.2,0.8l21.6-11.1l21.4,11.5c2.9,1.6,6.5,1.4,9.2-0.6c2.7-1.9,4.1-5.2,3.6-8.5
	l-3.9-24l17.6-16.8C359.8,62.2,360.7,58.8,359.7,55.6z M324.4,71.9c-2.1,2-3,4.9-2.6,7.7l1.8,11l-9.8-5.3c-2.5-1.4-5.6-1.4-8.1-0.1
	l-9.9,5.1l2-11c0.5-2.8-0.4-5.7-2.4-7.8l-7.9-7.9l11.1-1.5c2.9-0.4,5.3-2.1,6.6-4.7l5-10l4.9,10.1c1.2,2.6,3.7,4.4,6.5,4.9l11,1.7
	L324.4,71.9z M472.8,97.8c-1-3.2-3.7-5.5-7-6L447.5,89l-8-16.7c-1.4-3-4.5-4.9-7.8-4.9h-0.1c-3.3,0-6.3,1.9-7.8,4.8l-8.4,16.5
	L397,91.2c-3.3,0.4-6.1,2.7-7.1,5.9c-1.1,3.2-0.2,6.6,2.1,9l13.1,13.1l-3.3,18.2c-0.6,3.3,0.7,6.6,3.4,8.6c2.7,2,6.2,2.3,9.2,0.8
	l16.5-8.5l16.3,8.8c2.9,1.6,6.5,1.4,9.2-0.6c2.7-1.9,4.1-5.2,3.6-8.5l-3-18.3l13.4-12.8C472.9,104.5,473.8,101,472.8,97.8z
	 M441.7,110.1c-2.1,2-3.1,4.9-2.6,7.7l0.9,5.3l-4.7-2.6c-2.5-1.4-5.6-1.4-8.1-0.1l-4.8,2.5l1-5.3c0.5-2.8-0.4-5.7-2.4-7.8l-3.8-3.8
	l5.3-0.7c2.9-0.4,5.3-2.2,6.6-4.7l2.4-4.8l2.3,4.9c1.3,2.6,3.7,4.4,6.5,4.9l5.3,0.8L441.7,110.1z M230.1,97.8c-1-3.2-3.7-5.5-7-6
	L204.8,89l-8-16.7c-1.4-3-4.5-4.9-7.8-4.9h-0.1c-3.3,0-6.3,1.9-7.8,4.8l-8.4,16.5l-18.4,2.5c-3.3,0.4-6.1,2.7-7.1,5.9
	c-1.1,3.2-0.2,6.6,2.1,9l13.1,13.1l-3.3,18.2c-0.6,3.3,0.7,6.6,3.4,8.6c2.7,2,6.2,2.3,9.2,0.8l16.5-8.5l16.3,8.8
	c2.9,1.6,6.5,1.4,9.2-0.6c2.7-1.9,4.1-5.2,3.6-8.5l-3-18.3l13.4-12.8C230.2,104.5,231.1,101,230.1,97.8z M199,110.1
	c-2.1,2-3.1,4.9-2.6,7.7l0.9,5.3l-4.8-2.6c-2.5-1.4-5.6-1.4-8.1-0.1l-4.8,2.5l1-5.3c0.5-2.8-0.4-5.7-2.4-7.8l-3.8-3.8l5.4-0.7
	c2.9-0.4,5.3-2.2,6.6-4.7l2.4-4.8l2.3,4.9c1.3,2.6,3.7,4.4,6.5,4.9l5.3,0.8L199,110.1z M554.2,174l-14.2-2.2l-6.3-13
	c-1.4-3-4.5-4.9-7.8-4.9c-3.3,0-6.4,1.8-7.9,4.8l-6.5,12.8l-14.3,1.9c-3.3,0.4-6.1,2.7-7.1,5.9c-1.1,3.2-0.2,6.6,2.1,9l10.2,10.1
	l-2.6,14.2c-0.6,3.3,0.7,6.6,3.4,8.6c2.7,2,6.2,2.3,9.2,0.8l12.8-6.6l12.7,6.8c2.9,1.6,6.5,1.4,9.2-0.6c2.7-1.9,4.1-5.2,3.6-8.5
	l-2.3-14.2l10.4-9.9c2.4-2.3,3.3-5.8,2.3-8.9C560.2,176.8,557.5,174.5,554.2,174L554.2,174z M533.1,189.4c-2.1,2-3.1,4.9-2.6,7.7
	l0.2,1.3l-1.1-0.6c-2.5-1.4-5.6-1.4-8.1-0.1l-1.1,0.6l0.2-1.3c0.5-2.8-0.4-5.7-2.4-7.8l-0.9-0.9l1.3-0.2c2.9-0.4,5.3-2.2,6.6-4.7
	l0.6-1.1l0.6,1.1c1.3,2.6,3.7,4.4,6.5,4.8l1.3,0.2L533.1,189.4z M109.9,173.9l-14.6-2.3l-6.4-13.3c-1.4-3-4.5-4.9-7.8-4.9
	c-3.3,0-6.4,1.8-7.9,4.8l-6.7,13.2l-14.7,2c-3.3,0.4-6.1,2.7-7.1,5.9c-1.1,3.2-0.2,6.6,2.1,9l10.5,10.4l-2.6,14.6
	c-0.6,3.3,0.7,6.6,3.4,8.6c2.7,2,6.2,2.3,9.2,0.8l13.2-6.8l13,7c2.9,1.6,6.5,1.4,9.2-0.6c2.7-1.9,4.1-5.2,3.6-8.5l-2.4-14.6
	l10.7-10.2c2.4-2.3,3.3-5.8,2.3-8.9C115.9,176.7,113.2,174.4,109.9,173.9L109.9,173.9z M88.5,189.6c-2.1,2-3.1,4.9-2.6,7.7l0.3,1.7
	l-1.5-0.8c-2.5-1.4-5.6-1.4-8.1-0.1l-1.5,0.8l0.3-1.7c0.5-2.8-0.4-5.7-2.4-7.8l-1.2-1.2l1.7-0.2c2.9-0.4,5.3-2.2,6.6-4.7l0.8-1.5
	l0.7,1.5c1.3,2.6,3.7,4.4,6.5,4.9l1.7,0.3L88.5,189.6z M382.4,345.4h50.9c6.2,0,11.3-5,11.3-11.3s-5-11.2-11.3-11.2h-50.9
	c-6.2,0-11.2,5-11.2,11.2S376.2,345.4,382.4,345.4z"/>
</svg>
