<svg viewBox="0 0 18 18" xmlns="http://www.w3.org/2000/svg"><path fill="#054734" d="M0 0h18v18H0z"/><path d="M14.325 6.832a2.443 2.443 0 00-.53.593l-.003.004-2.283 3.729c-.643.958-1.505.937-1.91.76-.152-.054-.36-.193-.582-.422a4.227 4.227 0 01-.737-1.092 5.483 5.483 0 00-.635-1.026c-.19-.237-.327-.344-.37-.368l-.007-.004L7.26 9c-.354-.23-.713-.1-.834 0-.22.251-.721.822-1.052 1.197-.394.447-.844.53-1.099.53H3.102v-.5h1.173c.148 0 .447-.046.724-.361.336-.38.848-.964 1.062-1.208l.01-.011.01-.01c.25-.227.862-.432 1.444-.06.129.073.31.24.51.487.21.26.453.63.694 1.12.222.456.454.764.647.964.2.205.347.284.394.3l.013.004.013.006c.193.088.792.17 1.295-.575l2.274-3.713c.125-.213.365-.5.646-.727.272-.219.644-.432 1.023-.38l-.068.495c-.162-.022-.391.073-.64.274z" fill="#FFBF48"/><path d="M12.67 6.575c.92-.137 1.987-.06 2.29-.02l.066-.495c-.332-.045-1.454-.126-2.435.022l-.011.002c-.702.138-1.128.575-1.397 1.016L9.585 9.85v.002l-.002.003-.005.008-.02.034a6.995 6.995 0 01-.33.508 3.643 3.643 0 01-.32.395c-.114.119-.195.172-.236.185a.54.54 0 01-.377-.018c-.164-.066-.392-.237-.64-.665a9.418 9.418 0 00-.73-1.093c-.216-.274-.414-.482-.56-.582a1.083 1.083 0 00-1.377.073c-.126.114-.29.292-.457.473l-.038.04c-.185.202-.38.411-.561.58a1.82 1.82 0 01-.54.337 1.27 1.27 0 01-.392.106v.5c.148 0 .365-.054.583-.144.224-.093.477-.234.69-.433.197-.184.404-.407.588-.606l.028-.03c.177-.192.326-.354.435-.452.149-.136.433-.255.758-.031.08.054.24.21.45.478.205.26.445.61.69 1.035.285.49.588.756.885.877.299.122.556.083.716.032.168-.053.323-.188.446-.316.13-.135.257-.298.366-.45a7.667 7.667 0 00.354-.544l.022-.038.006-.01v-.002l.002-.002 1.592-2.742c.221-.362.542-.679 1.06-.783z" fill="#fff"/></svg>