<svg viewBox="0 0 18 18"xmlns="http://www.w3.org/2000/svg"  ><path fill="url(#aj2pdfzth)" d="M0 0h18v18H0z"/><path fill="#F7F7F7" d="M4 12h10v1H4z"/><path fill-rule="evenodd" d="M4 5h10v6h-.17l-.36-.52c-.18.26-.44.45-.75.52h-.56a1.27 1.27 0 01-.97-1.24 1.24 1.24 0 112.31-.67l.44-.47a1.86 1.86 0 00-1.5-.76c-1.04 0-1.88.85-1.88 1.9 0 .47.17.9.45 1.24h-.48c.08-.36.07-1.08-.65-1.28a.9.9 0 00.48-.87c-.04-.65-.51-1-1.26-1H7.44V11H7.1L5.87 7.86h-.62L4.01 11H4V5zm5.78 5.56c0 .2-.12.37-.3.44H8.06v-.92h1.25c.26 0 .47.21.47.48zM4.64 11h1.85l-.93-2.2-.92 2.2zm3.42-2.5h1.09a.48.48 0 110 .94H8.06V8.5zM6 6H5v1h1V6zm.75 0h1v1h-1V6zM9.5 6h-1v1h1V6zm.75 0h1v1h-1V6zM13 6h-1v1h1V6z" fill="#fff"/><defs><linearGradient id="aj2pdfzth" x1="3.35" y1="3.12" x2="21.9" y2="24.43" gradientUnits="userSpaceOnUse"><stop stop-color="#1A1E21"/><stop offset="1" stop-color="#06060A"/></linearGradient></defs></svg>