<svg viewBox="0 0 18 18"xmlns="http://www.w3.org/2000/svg" ><path fill="#F0F3FA" d="M0 0h18v18H0z"/><path d="M5.64 9.5h2.82l.26-1H5.9l-.26 1zM5.17 11h2.82l.28-1H5.45l-.28 1zm.9-3H8.9l.28-1H6.36l-.29 1z" fill="red"/><path d="M5.2 10h-1a.6.6 0 01-.55.33c-.5 0-.65-.4-.65-.82 0-.65.49-1.9 1.3-1.9.36 0 .5.2.5.39h.9c-.07-.76-.65-1-1.34-1-.54 0-1.03.05-1.46.43-.6.53-.9 1.39-.9 2.21 0 .84.7 1.36 1.54 1.36.7 0 1.5-.2 1.66-1zm5.8-.14c0-.58-1.35-.76-1.66-1.21-.18-.28-.15-.59-.03-.89.15-.33.5-.55.85-.67.18-.06.51-.1.84-.1.48 0 .94.16 1.2.59.08.14.1.26.1.42h-.88c-.02-.26-.37-.36-.62-.36-.27 0-.65.2-.6.5.04.22.22.32.46.44.5.25 1.32.45 1.34 1.11.02.92-.69 1.31-1.66 1.31-.57 0-1.28 0-1.62-.56a.76.76 0 01-.1-.44h.98c0 .33.42.4.74.4s.66-.2.66-.54zm2.62-.98h.62c.43 0 .76-.42.76-.76 0-.23-.1-.42-.46-.42h-.62l-.3 1.18zM12 11l1-4h1.2c.43 0 .8.03.94.05.42.05.86.36.86.8 0 .69-.31 1.75-1.31 1.75h-1.32L13 11h-1z"/></svg>