<svg xmlns="http://www.w3.org/2000/svg" ><path d="M0 9a9 9 0 1118 0A9 9 0 010 9z" fill="url(#afae21r44)"/><path d="M7.58 4.8c.13-.72.32-1.46.58-2.2h.9c-1.16 3.06-1.01 5.93-.01 7.88H8.1a9.51 9.51 0 01-.66-4.72 3.66 3.66 0 001.26 6.95 8.5 8.5 0 01-.14.84 4.5 4.5 0 01-.99-8.75z" fill="#fff"/><path d="M10.38 12.45c.13-1.56-.1-3.3-.73-5.07h-.9c1.17 3.06 1.02 5.93.02 7.88h.93c.26-.58.44-1.2.56-1.87a4.5 4.5 0 00-1.02-8.82c-.06.29-.1.57-.14.84a3.66 3.66 0 011.28 7.04z" fill="#fff"/><defs><linearGradient id="afae21r44" x1="3.05" y1="2.89" x2="14.14" y2="15.59" gradientUnits="userSpaceOnUse"><stop stop-color="#3C546E"/><stop offset="1" stop-color="#587A94"/></linearGradient></defs></svg>