<svg viewBox="0 0 18 18" xmlns="http://www.w3.org/2000/svg" ><path d="M0 9a9 9 0 1118 0A9 9 0 010 9z" fill="#F0F3FA"/><path d="M5.43 8.13C6.35 6.23 8.25 4.43 9 3c.75 1.43 2.65 3.23 3.57 5.13C13.84 10.73 12.2 14 9 14c-3.2 0-4.84-3.27-3.57-5.87z" fill="#FFB70D"/><path d="M9 14c-3.2 0-4.84-3.27-3.57-5.87.38-.8.94-1.57 1.51-2.3-1.34 2.64.42 5.35 2.7 5.35 1.4-.06 1.53-1.73.3-2.25.67 0 2.21.64 2.72 2.35.05.17.05.25-.03.42A3.87 3.87 0 019 14z" fill="#FF8B25"/><path d="M12.66 11.28c-.5-1.7-2.05-2.35-2.72-2.35.6.27.92.81 1.02 1.44.23 1.41-.51 3.14-1.96 3.63h.3a3.86 3.86 0 003.33-2.3.48.48 0 00.03-.42z" fill="#FF4226"/><path d="M10.88 10.07c0 .64-.52 1.17-1.18 1.17-.65 0-1.18-.53-1.18-1.17 0-.64.53-1.16 1.18-1.16.66 0 1.18.52 1.18 1.16z" fill="#3E3E3D"/></svg>