<svg viewBox="0 0 18 18" xmlns="http://www.w3.org/2000/svg" ><path fill="url(#azq2fdspw)" d="M0 0h18v18H0z"/><path d="M8.64 3.02V3h.01c6.64 4.82 4.47 10.09 1.42 10.9a3.24 3.24 0 01-3.71-1.72c2.73 1.18 6.1-3.77 2.28-9.16zm-2.28 9.16c-.92-.5-1.86-1.6-1.05-2.77.39-.56 1.26-.99 2.1-1.4.84-.41 1.64-.8 1.78-1.28h.02c.46 1.3-.53 2.12-1.5 2.91-.9.75-1.78 1.48-1.35 2.54z" fill="#fff"/><defs><linearGradient id="azq2fdspw" x1="9" y1="0" x2="9" y2="18" gradientUnits="userSpaceOnUse"><stop stop-color="#00AABC"/><stop offset="1" stop-color="#004B68"/></linearGradient></defs></svg>