<!-- by TradingView --><svg xmlns="http://www.w3.org/2000/svg" width="56" height="56"><path fill="#F0F3FA" d="M0 0h56v56H0z"/><path d="M11.78 23.45c.13.04.27.02.41.02h.92c.23-.02.34.09.4.28.07.22 0 .33-.26.34h-.71c-.03 0-.1.1-.08.13.05.19.13.36.17.55.16.83-.18 1.48-.96 1.92-.55.3-1.15.43-1.78.46-.35.02-.7.06-1.05.1-.1 0-.2.03-.28.1-.11.08-.23.18-.27.3-.04.12.17.3.37.33.19.03.37.02.56.03.82.02 1.62.03 2.43.1a4 4 0 011.03.2c.83.27.98.94.82 1.58-.14.59-.6.96-1.09 1.27-.75.48-1.6.7-2.5.81-.78.09-1.53 0-2.3-.11-.65-.11-1.61-.5-1.61-1.27 0-.61.64-.96 1.15-1.19.59-.27.58-.3.09-.73a4.51 4.51 0 01-.65-.72c-.15-.22-.1-.33.14-.46l.29-.1c.28-.09.57-.18.85-.29l.11-.09-.09-.08c-.23-.14-.48-.24-.69-.39a1.68 1.68 0 01-.6-2.16c.3-.63.86-.97 1.5-1.2.47-.18.91-.18 1.4-.18.82 0 1.5.23 2.28.45zM9.11 29.2c-.24 0-.62.05-.62.05s-.34.06-.5.18c-.54.4-.54 1.42.23 1.78a3.6 3.6 0 003.48-.27c.47-.4.61-.93-.13-1.3a2.06 2.06 0 00-.57-.18c-.63-.1-1-.26-1.89-.26zm1.76-4.11c.02-.42-.08-.8-.3-1.18-.41-.68-1.67-.72-2.11.08-.39.7-.39 1.44-.01 2.16.44.84 1.74.74 2.1.12.23-.38.34-.76.32-1.18zm38.45 3.9c-.42.2-.84.3-1.31.23l-.2-.05c-.7-.08-.78-.3-.74-.94.01-.13.04-.25.08-.38.02-.05.07-.12.13-.12.05 0 .13.04.15.1.11.2.2.44.3.65.1.19.25.33.48.4.36.09.77-.02.93-.29a.74.74 0 00-.26-.97l-.7-.38c-.15-.07-.3-.13-.45-.22-.4-.24-.63-.57-.57-1.04.05-.44.28-.77.72-.97.55-.25 1.1-.21 1.66-.03.2.07.3.2.29.4l-.01.25c-.03.11-.07.29-.16.32-.17.06-.18-.14-.25-.24-.07-.08-.1-.2-.17-.28a.77.77 0 00-1-.19c-.32.19-.36.53-.06.75.17.13.37.23.56.33.16.09.32.16.5.23.55.23.77.67.76 1.2 0 .51-.18 1-.68 1.24zm-10.28.81v.43c.01.32.05.36.4.45.03.01.07 0 .1.02.11.04.23.09.2.23-.03.15-.16.16-.27.15-.15-.02-.3-.07-.45-.07-.36 0-.7.03-1.06.04-.1 0-.2.03-.3 0a.28.28 0 01-.14-.17c-.01-.04.06-.13.1-.13.57-.03.49-.42.49-.76v-3.6c0-.27.06-.56-.35-.64-.1-.02-.1-.17.01-.23l1.07-.64c.12-.07.2-.01.21.1l.07.47.4-.3a1.6 1.6 0 012.29.4c.59.8.6 2.21-.22 3.03-.5.51-1.15.77-1.92.6a4.45 4.45 0 01-.39-.1c-.14-.04-.23-.02-.23.15v.57zm0-2.63v.48c.02.27.04.54.1.8.03.2.2.34.4.4.52.14 1.07-.06 1.37-.49.43-.6.4-1.26.24-1.92a1.22 1.22 0 00-.55-.73 1.16 1.16 0 00-1.15-.11c-.37.15-.4.48-.4.8-.02.26 0 .52 0 .77zm-21.16-.36v1.45c0 .2.04.36.3.41.16.02.16.17.02.23-.33.13-.66.23-1 .32-.06.02-.19-.08-.22-.15-.04-.1-.02-.22-.03-.32a.3.3 0 00-.04-.13c-.04.03-.1.05-.12.08-.35.3-.73.47-1.22.49-.72.04-1.4-.6-1.38-1.31.02-.65 0-1.3.01-1.96.01-.32-.03-.57-.43-.64-.06 0-.1-.13-.16-.2.09-.05.17-.13.25-.13.31 0 .64.04.95.05.3.01.33.02.33.3.01.75-.01 1.5.01 2.25 0 .2.04.42.11.6.14.38.49.5 1.02.41.34-.05.57-.26.58-.62.02-.77 0-1.53 0-2.3 0-.19-.06-.31-.28-.33-.15 0-.28-.07-.22-.23.05-.14.17-.15.34-.12.23.04.46.04.7.04.45.01.47.01.47.46l.01 1.35zm18.72.07v1.15c0 .11.01.23.04.33.05.18.15.23.34.17l.13-.07c.08-.04.2-.14.25-.01.03.07 0 .18-.04.26-.25.43-.82.61-1.19.38a.87.87 0 01-.24-.23c-.21-.26-.2-.26-.5-.07-.2.12-.38.25-.57.33-.37.17-.76.13-.97-.1-.27-.28-.28-.6-.16-.95.12-.32.33-.57.62-.73.38-.21.77-.4 1.16-.58.15-.06.2-.13.2-.28 0-.31.02-.64 0-.96-.02-.32-.33-.46-.61-.29-.16.09-.28.23-.38.38-.1.12-.14.3-.24.41-.1.1-.22.21-.35.25-.11.04-.33.03-.38-.04-.07-.1-.07-.27-.03-.39a.97.97 0 01.28-.4 2.4 2.4 0 011.85-.61c.56.04.8.3.8.86v1.19zm-.93.7v-.42c0-.03-.1-.09-.14-.09-.6.13-.91.52-.87 1.1.02.37.25.5.6.36.24-.1.39-.27.4-.52.02-.14 0-.28 0-.43zm-6.4-.58v1.2c.01.36.11.42.46.26.09-.05.16-.12.26-.02.11.1.06.21-.03.29-.13.11-.26.24-.42.33-.4.24-.64.24-1.01-.17l-.13-.2c-.05-.09-.12-.1-.2-.03-.2.13-.38.28-.6.37-.22.1-.47.19-.7.18-.4-.02-.7-.44-.66-.83.05-.57.4-.92.9-1.18.32-.17.63-.32.95-.46.16-.06.24-.16.23-.32-.02-.26 0-.51 0-.77 0-.22-.06-.44-.31-.5a.56.56 0 00-.58.22c-.1.12-.16.28-.25.41-.1.14-.19.27-.3.39-.12.13-.3.15-.47.1-.08-.04-.18-.17-.17-.24a.75.75 0 01.16-.4 2.24 2.24 0 012.1-.8c.34.04.64.2.69.6.02.15.06.3.07.47.02.37.01.74.01 1.1zm-.88.53h-.04v-.34c0-.14-.09-.18-.2-.13l-.44.2a.9.9 0 00-.43.62c-.06.29.06.6.25.66.24.08.56-.04.7-.33.09-.2.1-.45.16-.68zm-6.52-.68v1.3c.05.41.13.45.53.3.07-.03.15-.01.22-.02 0 .08.04.16.01.22-.16.33-.48.51-.83.56-.3.04-.53-.16-.68-.4l-.08-.13c-.04-.08-.1-.08-.16-.03-.18.12-.35.24-.55.35-.23.13-.47.26-.75.22-.54-.06-.83-.55-.65-1.08.11-.35.34-.63.67-.82.37-.2.73-.4 1.12-.56.17-.07.23-.15.22-.31v-.92c-.03-.35-.33-.5-.65-.3-.14.09-.26.23-.36.38-.1.11-.13.26-.22.37a.91.91 0 01-.24.24c-.14.1-.49.1-.52 0a.69.69 0 010-.4.74.74 0 01.22-.33 2.35 2.35 0 011.92-.66c.54.05.76.3.78.82v1.2zm-.83.59H21l-.01-.3c-.01-.03-.1-.09-.15-.09-.57.07-.97.56-.93 1.12.02.37.25.5.62.35.2-.1.32-.24.37-.43l.13-.65zm24-.97h-1.07c-.18 0-.28.03-.27.24 0 .38.03.76.2 1.11a1.4 1.4 0 001.98.62c.13-.07.25-.17.38-.24.04-.03.11-.03.16-.04.01.06.04.12.02.18a.52.52 0 01-.12.2c-.57.64-1.9 1.04-2.83.32a1.72 1.72 0 01-.42-.46c-.6-.92-.53-2.4.42-3.15.9-.7 2.37-.47 2.84.37.08.15.15.32.2.48.05.23-.07.37-.32.37h-1.17zm-.58-.31v.02c.23-.03.47-.03.7-.09.36-.09.45-.3.3-.62a.64.64 0 00-.5-.35.98.98 0 00-1.15.83c-.02.14.04.2.2.2h.45zm-20.15 1.11v.97c.01.33.04.37.37.48.15.05.41.03.38.22-.03.23-.3.12-.47.13h-1.42c-.1 0-.2 0-.3-.02-.04 0-.09-.05-.1-.1a.2.2 0 01.06-.12c.02-.03.05-.05.08-.05.43-.05.45-.33.44-.67v-1.87c0-.2.02-.41-.3-.47-.15-.03-.14-.18 0-.28.31-.19.62-.4.93-.58.16-.1.26-.06.29.1.02.08 0 .17 0 .24l.07.1.08-.04c.2-.13.39-.3.61-.41a.69.69 0 01.86.19c.25.3.14.75-.24.86a.76.76 0 01-.38-.03c-.14-.06-.26-.16-.37-.24-.27-.2-.4-.18-.5.13-.07.16-.1.34-.1.51l.01.95zm7.4-.04v1c.01.36.04.41.4.5.15.05.35 0 .31.23-.03.17-.22.11-.34.11H30.5c-.07 0-.14.01-.2-.02-.05-.01-.11-.07-.11-.12 0-.05.05-.1.09-.15.02-.02.06-.02.09-.03.33-.06.4-.28.4-.57v-1.92c0-.24-.04-.43-.34-.5-.15-.04-.15-.15-.01-.25.32-.22.66-.43 1-.64.13-.08.19-.01.2.1.02.08 0 .17.02.24.01.06.04.11.06.17l.16-.1c.16-.11.3-.27.47-.36a.76.76 0 011 .26c.16.26.14.46-.07.65-.2.18-.38.21-.64.06-.15-.08-.27-.2-.41-.28-.2-.13-.3-.1-.4.1a.95.95 0 00-.09.42c-.02.36 0 .73 0 1.1z"/></svg>