<!-- by TradingView --><svg xmlns="http://www.w3.org/2000/svg" width="56" height="56" fill="none"><path fill="url(#ayzekjyi5)" d="M0 0h56v56H0z"/><circle cx="28" cy="28" r="15" stroke="#fff" stroke-width="2"/><path d="M35.6 18.49L32.48 24H36v3h-7.4l-3.28-5.98 2.57-1.53 1.56 2.69 3.12-5.49 3.03 1.8zM16 26h6.06l-1.42-2.4 2.92-1.63L26.87 28l-3.4 6.09-2.98-1.67L22.06 30H16v-4zm16.51 13.47l-3.15-5.49-1.56 2.66-2.58-1.57L28.6 29H36v3h-3.61l3.15 5.77-3.03 1.7z" fill="#fff"/><defs><linearGradient id="ayzekjyi5" x1="10.42" y1="9.71" x2="68.15" y2="76.02" gradientUnits="userSpaceOnUse"><stop stop-color="#1A1E21"/><stop offset="1" stop-color="#06060A"/></linearGradient></defs></svg>