<!-- by TradingView --><svg xmlns="http://www.w3.org/2000/svg" width="56" height="56"><path d="M0 28a28 28 0 1156 0 28 28 0 01-56 0z" fill="#BE2E48"/><path d="M37 30.5a3.5 3.5 0 102.5-3.36c-1.37.41-3.1-.62-4.22-1.36a6.29 6.29 0 01-1.07-.85c-1.08-1.13-2.61-3.06-2.28-4.74A3.52 3.52 0 0028.5 16a3.5 3.5 0 00-.1 7 8.11 8.11 0 015.86 2.59l.6.58.2.2c.95.92 2.23 2.17 2 3.51-.04.2-.06.4-.06.62zm3.97-13.47a3.5 3.5 0 11-4.95 4.94 3.5 3.5 0 014.95-4.94zM22 19.5a3.5 3.5 0 11-7 0 3.5 3.5 0 017 0zM18.5 34a3.5 3.5 0 100-7 3.5 3.5 0 000 7zM33 30.5a3.5 3.5 0 01-4.12 3.45c-1.34-.24-2.59 1.04-3.51 1.98l-.2.2-.58.61-.39.4a8.11 8.11 0 00-2.2 5.5 3.5 3.5 0 11-2.8-3.57c1.67.33 3.6-1.2 4.73-2.28.27-.25.57-.62.85-1.07.74-1.13 1.77-2.85 1.36-4.22a3.5 3.5 0 116.86-1z" fill="#fff"/></svg>