<!-- by TradingView --><svg xmlns="http://www.w3.org/2000/svg" width="56" height="56"><path fill="#F8880C" d="M0 0h56v56H0z"/><path d="M24.07 28.84l-1.44-.97.01 1.23.5.67.93-.93zm-6.68-14.99l-.33-.1a.53.53 0 00-.65.32l-1.33 3.9a.5.5 0 00.34.64l1.97.61v-5.37zm21.04 8.96l1.44-1.92-.76-.24-.68.69v1.47zM11.8 28.55a.52.52 0 00-.4.34l-1.2 3.51a.5.5 0 00.34.65l.52.16 3.93-5.2-3.19.54zm27.81 13.59l1.47-4.32a.5.5 0 00-.34-.65l-2.3-.72v5.32l1.17.37zm-7.27-14.71l.9.53v-1.42l-.9.9zm-15.95 7.45l1 .31v-1.65l-1 1.34zm25.22-6.62l2.56-.43c.2-.03.35-.17.4-.35l1.4-4.13a.51.51 0 00-.33-.65l-.46-.14-3.94 5.2.37.5zm-18.9 9.49l.02 2.5 1.27-.4.04-.33-1.33-1.77zm-7.51-.05a.52.52 0 00-.13.5l1.1 3.54c.08.27.37.42.65.34l.56-.17v-6.4L15.2 37.7zm30.24-4.54a.5.5 0 00.33-.63l-1.2-3.88a.53.53 0 00-.65-.34l-1.83.58 3.25 4.3.1-.03zM39.1 20.65l1.8-1.8a.5.5 0 00.12-.5l-1.3-4.16a.52.52 0 00-.64-.34l-.65.2v6.4l.68.2zm-8 4.6l1.46-.25h.11l-1.06-1.4-.26-.07-.25 1.72zm2.15-8.07v-1.51l-.76.23-.03.22.8 1.06zM25.3 30.89l-1.24.07 1 1.32h.04l.2-1.4zM10 22.93l1.35 4.4c.08.28.38.44.66.34l2.52-.8-3.27-4.34-1.26.4z" fill="#fff"/><path d="M31.61 23.6l-.23-.3-.03.23.26.07zm13.66-1.16a.5.5 0 00-.12-.72l-3.43-2.44a.53.53 0 00-.73.1l-1.13 1.52 5.3 1.66.1-.12zM32.49 15.9l.36-2.43a.5.5 0 00-.22-.5l-3.7-2.6a.52.52 0 00-.73.1v.01l4.12 5.48.17-.06zM27.55 32l-.97.75 1.62.5h.03L27.55 32zm-12.37-4.27l-.2.28.36-.06-.16-.22zm13.59-3.59l1-1 .1-.07-1.69-.52-.26.07.85 1.52zM10.25 34.27l3.91 2.76c.23.17.55.11.72-.11l1.5-2.04-5.33-1.67-.8 1.06zM24 39.85l-.48 3.34a.5.5 0 00.21.49l3.16 2.22c.23.17.55.12.72-.11l.58-.77-3.95-5.24-.24.07zm6.4-.59l1.08 1.4.48-.64-.18-.33-1.38-.43zm-4.07-22.61l-1.4-1.83-.78 1.04.07.13 2.1.66z" fill="#fff"/><path d="M28.18 22.55l-.37-.11.11.18.26-.07zm2.7 4.2l.22-1.5-1.56.26.45.83.89.4zm-3.84-5.71l.77 1.4.37.11 2.12-.68-3.25-4.27-1.64.52 1.46 2.62.42-.57-.25.87zM25.1 32.32l.76 1 .72-.56-1.48-.47v.03zm6.28-9.02l-.66-.89-.85.66 1.48.46.03-.23zM29.1 34.85l-.86-1.58-.04-.01-1.93.6 3.26 4.26 1.18-.36-1.48-2.69-.28.38.16-.6zm-3.6-5.33l-.2 1.37 1.53-.1h.05l-.47-.85-.9-.42zm6.46 10.5L33.59 43c.1.17.27.27.46.27h3.87c.28 0 .52-.23.52-.52v-.97l-6.31-1.97-.17.23zm-14.57 2.74c0 .28.23.5.52.5l4.33.02c.29 0 .52-.23.52-.5l-.03-2.53-5.34 1.67v.84zm12.59-11.15l-.32 1.19 1.67-.53.02-.02-1.37-.64zM17.39 35.2v.32l.25-.25-.25-.08zm8.84-10.62l.21-1.48-1.72.55-.13.17 1.64.76zm12.2-10.66c0-.27-.23-.5-.52-.5l-4.12-.09c-.3 0-.53.23-.53.51v1.82l5.17-1.6v-.14zM36.66 35.9l1.77.55v-.89l-.27-.13-1.5.47zM24.15 15.86l-1.25-2.24a.52.52 0 00-.46-.27l-4.54.01c-.28 0-.5.22-.51.49l6.7 2.1.06-.1zm-4.5 4.06l-2.26-.7v1.24l.2.1 2.06-.64zm-2.01 15.35l4.2 1.32-2.37-3.15-1.83 1.83zm15.6-8.73l.34-.35-.34-.46v.8z" fill="#fff"/><path d="M29.1 34.85l.13.22.91-1.2-.7-.23-.33 1.21zm5.5 1.7l2.06-.65-1.28-.4-.78 1.05zm-7.56-15.51l-.17-.3-.84 1.14.7.22.31-1.06zm11.39.3v-.9l-3.55-1.11 2.39 3.17 1.16-1.16zm-16.9-2.01l-1.88.59 1.17.36.71-.95zm3.19 4.32l-.3.09.17.08.13-.17zm-3.47 3.29l-.24.03.63.83.3-.4-.7-.46zM31.78 39.7l.35.1 2.47-3.25-3.89 1.21 1.07 1.93zm-14.39-6.16l1.07-1.45-1.07-1.43v2.88zm21.04-9.5V22.8l-.46.61.46.62zm-2.92 5.26l.4-.06-1.16-1.52-.6.78 1.36.8zM24.22 16l-.14-.05-2.55 3.38 3.88-1.21-1.19-2.13zm5.32 9.51l-.77-1.37-1.1 1.11.91.43.96-.17zm-1.3 7.76l1.2.37.22-.84-1.43.45.01.02z" fill="#fff"/><path d="M22.93 23.05l1.49.69.3-.1 1.3-1.76-5.2-1.6-1 1.31 2.77 1.3v-.7l.34.86zM33 33.03l-1.62-.77-.05.01-1.19 1.6 5.24 1.63.76-1-2.92-1.38v.44l-.21-.53zm-6.12-2.23l.67 1.2 1.16-.92.04-.05-.88-.41-1 .17zm.93-8.36l-1.08-.34-.29 1 1.48-.48-.1-.18zm.82 23.18c.17.22.5.28.73.1l3.43-2.49a.5.5 0 00.1-.71l-1.41-1.86-3.3 4.35.45.6zm-.64-35.42a.53.53 0 00-.72-.1l-3.43 2.4a.5.5 0 00-.12.73l1.21 1.59 3.27-4.34-.21-.27zm-3.53 16.19l-.72-1.31-.03-.07-1.1 1.47v.22l1.85-.31zm13.97 9.17l2.96 1.39c.18.08.38.06.54-.06l3.58-2.61a.5.5 0 00.11-.72l-.28-.37-6.9 2.15v.22zm-21.04-15.1L14.7 19.2a.52.52 0 00-.52.04l-3.1 2.16a.5.5 0 00-.1.72l.3.4 6.11-1.91v-.16zm14.39 9.49l.46 1.12 1-1.33v-.04l-1.46.25zm8.97-1.55l-.9 1.2 2.24-.7-.48-.64-.86.14zm-26.21-1.52l.64.85 1.06-1.4-1.7.55zm11.11 1.67l-.46-.83-1.12 1.12 1.44.68.14-.97zm-.82 5.58l.26-1.81-.03-.04-2.4-.75.04 5.33 1.66.52.44-3.05-.36.11.4-.3zm-.77-3.17l-.91-1.2-.5.5v.79l1.41-.09zm7.56-9.25l-.24 1.6.23.3 1.63.5v-5.3l-1.14-.35-.43 2.98.53-.17-.58.44zm1.62 3.26l-.57.03.57.73v-.76zm-2.02 3.58l1.12-1.12-1.46-.68-.14.92.48.88z" fill="#fff"/><path d="M31.62 21.71l.05-.27-1.37.43.42.54.9-.7zm-3.41-4.47l-1.88-.6.72.96 1.16-.36zm10.22 6.8v4.76l2.32-.4.49-.64-2.81-3.72zM28.14 38.56l2.26.7-.87-1.14-1.39.44zm-3.31-4.43l-.03.2 1.47-.47-.41-.54-1.03.81zm-9.49-6.18l2.05 2.71V27.6l-2.05.35zM33 33.03l.22.1.01-1.45-.67.2.45 1.15zm-10.07-9.98l-.34-.16v1.43l.75-.24-.41-1.03zm-6.69 3.29l1.15-.37v-1.15l-1.15 1.52zm16.22-10.22l-.13-.16-4.12 1.28 3.9 1.22.35-2.34zm-8.42 23.4l.2.26 3.9-1.22-3.78-1.18-.32 2.14zm14.39-8.05l1.42-1.88-1.42.46v1.42zm-12.56-4.43l.14-.92-1.55.27.73 1.33.68-.68zm-4.51 4.08l.45-.03.84-.83V29.1l-1.01-1.3-3.18 4.3 1.01 1.34 2.21-2.21-.32-.1zm1.27-3.25l-.01-1.17-.2.03-.48.67.69.47zm7.87 1.42l-.13.9 1.41-.24-.56-1.4-.72.74zm2.73-1.33v1.74h.04l.89-1.2-.93-.54zm1.66-3.07l-1.3 1.3 1.16 1.53 3.22-4.3-.7-.92-2.18 2.18.57.17-.77.04zm-.01-5.56l-1.63-2.15v1.64l1.63.5zM17.6 20.56l-.21.06v4.2l2.43-3.23-2.23-1.03zm20.56 14.87l.27-.09v-3.87l-2.29 3.02 2.02.94z" fill="#fff"/><path d="M34.89 24.89l.2-.21-1.85-.57v.86l1.65-.08zM21.81 31.1l-.13.13.98.3v-.48l-.85.04zm.03 5.49l.87 1.16v-.9l-.87-.26zm9.54-4.33l1.18-.37-.32-.82-.9 1.18h.04zm-2.63-1.23l1.23.58.39-1.42-.94.16-.68.68zm-4.33-7.29l-1.08.34.37.93.88-1.19-.17-.08zm11.9 6.04l-.8-.47-2.25.38-.04.05v1.94l5.2-1.63V28.8l-2.52.44.4.54zm-8.66-4.53l-1.43-.67-.22 1.54.95-.16.7-.7zm-6.96 1.32l.55.37 1.18-.2.19-.26-.02-2.16-5.21 1.65v1.63l3.62-.63-.3-.4zM27.87 30.62l1.56-.27 1.07-1.06.24-1.62-.75-1.34-1.41-.65-1.62.28-1.1 1.08-.21 1.5.76 1.4 1.46.68z" fill="#fff"/></svg>