<!-- by TradingView --><svg xmlns="http://www.w3.org/2000/svg" width="56" height="56"><path fill="#06F" d="M0 0h56v56H0z"/><path d="M16.82 17.33c-1 .96-1.93 2.7-1.8 5.86a32.5 32.5 0 003.78 13.74c2.38 4.26 5.64 7.07 9.7 7.07 3.23 0 6.33-2.82 8.75-7.27 2.36-4.35 3.72-9.67 3.75-13.49.02-2.94-.87-4.7-1.84-5.72A4.81 4.81 0 0036.38 16c-1.86.02-3.24.94-4.67 2.72-.93 1.15-2.14 2.08-3.65 2.12-1.52.03-2.82-.85-3.87-2.1C22.73 17 21.47 16 19.95 16c-.8 0-2.08.32-3.13 1.33zm-2.08-2.16a7.7 7.7 0 015.2-2.17c3 0 5.05 2.04 6.55 3.82.77.9 1.27 1.02 1.5 1.02.24 0 .7-.16 1.38-1 1.75-2.18 3.92-3.84 7.09-3.84h.14c1.36.13 3.22.84 4.75 2.47 1.56 1.66 2.67 4.19 2.65 7.8-.03 4.35-1.55 10.16-4.12 14.89C37.38 42.79 33.5 47 28.5 47c-5.65 0-9.71-3.94-12.32-8.61-2.62-4.7-4-10.5-4.17-15.08-.14-3.85 1-6.48 2.73-8.14z" fill="#fff"/></svg>