<!-- by TradingView --><svg xmlns="http://www.w3.org/2000/svg" width="56" height="56"><path fill="#022C6A" d="M0 0h56v56H0z"/><path d="M33.1 25c-.84 0-1.8.45-2.1 1.33V23l-1 .25V32h1v-1.24A2.3 2.3 0 0033.07 32c2 0 2.93-1.57 2.93-3.38.02-1.78-.93-3.62-2.91-3.62zm0 6c-1.7 0-2.11-1.45-2.1-2.5.01-1.05.4-2.5 2.1-2.5 1.51 0 1.9 1.47 1.9 2.5s-.39 2.5-1.9 2.5zM7.4 23H4v9h1v-4h2.41A2.49 2.49 0 0010 25.5c.02-1.36-1.04-2.5-2.59-2.5zm-.17 4H5v-3h2.24c1.14 0 1.74.6 1.76 1.5.02.9-.62 1.5-1.76 1.5zM43 32h1v-8l-1 .24V32zm2 0h1v-8l-1 .24V32zm-32-7c-1.94 0-3 1.6-3 3.5 0 1.89 1.06 3.5 3 3.5s3-1.6 3-3.5-1.06-3.5-3-3.5zm0 6c-1.31-.01-2-1.1-2-2.5s.7-2.5 2-2.5 2 1.1 2 2.5-.69 2.51-2 2.5zm13.5-6c-1.94 0-3 1.6-3 3.5 0 1.89 1.06 3.5 3 3.5s3-1.6 3-3.5-1.06-3.5-3-3.5zm0 6c-1.3-.01-2-1.1-2-2.5s.71-2.5 2-2.5c1.3 0 2 1.1 2 2.5s-.68 2.51-2 2.5zM50 25c-1.94 0-3 1.6-3 3.5 0 1.89 1.06 3.5 3 3.5s3-1.6 3-3.5-1.06-3.5-3-3.5zm0 6c-1.31-.01-2-1.1-2-2.5s.7-2.5 2-2.5 2 1.1 2 2.5-.69 2.51-2 2.5zm-28-5v-2l-1 .24V32h1v-5h1.35l.24-1H22zm17.52-1c-1.96 0-2.78 1.76-2.78 3.5 0 1.89 1 3.5 2.78 3.5 1.34 0 2.3-.6 2.65-2h-.93c-.43.7-.69 1-1.72 1s-1.77-.83-1.78-2h4.5c.05-1.87-.74-4-2.72-4zm-1.78 3c.12-1.2.73-2 1.78-2s1.68.8 1.72 2h-3.5zm-17.91-3c-.97 0-1.5.57-1.83 1.65V25h-1v7h1v-3.46c0-1.42.66-2.56 1.86-2.54H20v-1h-.17z" fill="#fff"/></svg>