<!-- by TradingView --><svg xmlns="http://www.w3.org/2000/svg" width="56" height="56"><path fill="#0C416D" d="M0 0h56v56H0z"/><path fill-rule="evenodd" d="M28 44a16 16 0 100-32 16 16 0 000 32zm0-8a8 8 0 100-16 8 8 0 000 16z" fill="#fff"/><path d="M37 35.38l-2.3-3.88-3.7 2.63V38l-.4 2 .2.25.2.05h1l.5.2h.8l.28-.25.22.25h.9l.3-.25.2.25h1l.2-.1.1-.4.5-4.63z" fill="#0C416D"/><path d="M30 35.2c0-.22.18-.4.4-.4h1.06a.4.4 0 01.39.51l-.27.9a.4.4 0 01-.38.29h-.8a.4.4 0 01-.4-.4v-.9z" fill="#fff"/><path fill-rule="evenodd" d="M31.46 35H30.4a.2.2 0 00-.2.2v.9c0 .11.09.2.2.2h.8a.2.2 0 00.2-.14l.26-.9a.2.2 0 00-.2-.26zm-1.06-.2a.4.4 0 00-.4.4v.9c0 .22.18.4.4.4h.8a.4.4 0 00.38-.29l.27-.9a.4.4 0 00-.39-.51H30.4z" fill="#0C416D"/><path d="M30 36.7c0-.22.18-.4.4-.4h1.06a.4.4 0 01.39.51l-.27.9a.4.4 0 01-.38.29h-.8a.4.4 0 01-.4-.4v-.9z" fill="#fff"/><path fill-rule="evenodd" d="M31.46 36.5H30.4a.2.2 0 00-.2.2v.9c0 .11.09.2.2.2h.8a.2.2 0 00.2-.14l.26-.9a.2.2 0 00-.2-.26zm-1.06-.2a.4.4 0 00-.4.4v.9c0 .22.18.4.4.4h.8a.4.4 0 00.38-.29l.27-.9a.4.4 0 00-.39-.51H30.4z" fill="#0C416D"/><path d="M36.4 40.1V39h.2v1.1a.5.5 0 01-.5.5h-.7a.5.5 0 01-.5-.5v-.8h.2v.8a.3.3 0 00.3.3h.7a.3.3 0 00.3-.3z" fill="#fff"/><path d="M33.8 39.11l-.14.95a.3.3 0 00.3.34h.64a.3.3 0 00.3-.3v-.7h.2v.7a.5.5 0 01-.5.5h-.64a.5.5 0 01-.5-.57l.14-.94.2.02z" fill="#fff"/><path d="M33.45 40.14l.15-1.05.2.02-.15 1.06a.5.5 0 01-.5.43h-.65a.5.5 0 01-.48-.61l.18-.81.2.04-.19.81a.3.3 0 00.3.37h.64a.3.3 0 00.3-.26z" fill="#fff"/><path d="M30.9 39.02l-.19.81a.3.3 0 00.3.37h1.13v.2H31a.5.5 0 01-.48-.61l.18-.81.2.04zm-5.3-9.42a.35.35 0 01.24-.6h6.22a.35.35 0 01.25.1l3.37 3.22-.36.36L32 29.5h-5.8l4.48 4.32-.36.36-4.72-4.58z" fill="#fff"/><path d="M30 33.8c0-.22.18-.4.4-.4h1.06a.4.4 0 01.38.52l-.25.8a.4.4 0 01-.38.28h-.81a.4.4 0 01-.4-.4v-.8z" fill="#fff"/><path fill-rule="evenodd" d="M31.46 33.6H30.4a.2.2 0 00-.2.2v.8c0 .11.09.2.2.2h.8a.2.2 0 00.2-.14l.25-.8a.2.2 0 00-.2-.26zm-1.06-.2a.4.4 0 00-.4.4v.8c0 .22.18.4.4.4h.8a.4.4 0 00.39-.28l.25-.8a.4.4 0 00-.38-.52H30.4z" fill="#0C416D"/><path d="M39 36l7 7h-6.5l-3-3 .5-4.5-2-1.5v-1.7a.2.2 0 01.28-.18l3.12 1.34a.2.2 0 01.12.14L39 36z" fill="#fff"/><path d="M34.75 32.3c0-.32.33-.54.63-.41l3.12 1.34a.45.45 0 01.27.32l.46 2.33 7.62 7.62h-7.2l-3.41-3.4.5-4.49-1.99-1.49V32.3zm.5.08v1.5l2.01 1.5-.5 4.53 3.1 3.09h5.79l-6.88-6.88-.49-2.44-3.03-1.3z" fill="#0C416D"/><path d="M30 38.2c0-.22.18-.4.4-.4h1a.4.4 0 01.37.55l-.17.4a.4.4 0 01-.37.25h-.83a.4.4 0 01-.4-.4v-.4z" fill="#fff"/><path fill-rule="evenodd" d="M31.4 38h-1a.2.2 0 00-.2.2v.4c0 .11.09.2.2.2h.83a.2.2 0 00.19-.12l.16-.4a.2.2 0 00-.18-.28zm-1-.2a.4.4 0 00-.4.4v.4c0 .22.18.4.4.4h.83a.4.4 0 00.37-.25l.17-.4a.4.4 0 00-.37-.55h-1z" fill="#0C416D"/></svg>