<!-- by TradingView --><svg xmlns="http://www.w3.org/2000/svg" width="18" height="18"><path fill="#FA4616" d="M0 0h18v18H0z"/><path d="M7.13 4.53A3.6 3.6 0 019.15 4c1.03.02 1.97.48 2.33.72a.5.5 0 01-.56.83A3.8 3.8 0 009.13 5c-.5-.01-1.05.1-1.45.36-.37.25-.66.65-.68 1.34-.01.55.42 1.04 1.13 1.44.68.38 1.47.6 1.78.65.42.08.93.27 1.35.66.44.4.74.98.74 1.78C12 12.9 10.5 14 8.78 14a4.15 4.15 0 01-2.61-.78.5.5 0 11.66-.75c.15.13.82.53 1.95.53 1.36 0 2.22-.82 2.22-1.77 0-.52-.19-.84-.42-1.05a1.76 1.76 0 00-.85-.4A7.52 7.52 0 017.63 9C6.87 8.57 5.98 7.82 6 6.67a2.51 2.51 0 011.13-2.14z" fill="#fff"/></svg>