<!-- by TradingView --><svg xmlns="http://www.w3.org/2000/svg" width="56" height="56"><path fill="#F0F3FA" d="M0 0h56v56H0z"/><path d="M22.18 41.19a10.73 10.73 0 01-.2-4 10.81 10.81 0 01-6.43-5.59 10.94 10.94 0 009.11 14.33 11.22 11.22 0 01-2.48-4.74z" fill="#007161"/><path d="M21.98 37.2a11 11 0 013.24-6.43 11 11 0 01-5.01-5.05 10.9 10.9 0 00-4.66 5.88c1.31 2.74 3.7 4.7 6.43 5.6z" fill="#007B6C"/><path d="M28.86 37.16c-2.32.78-4.7.71-6.88.03a10.89 10.89 0 002.68 8.74 10.95 10.95 0 0011.12-15.65c-.03.03-.05.03-.08.03a10.87 10.87 0 01-6.84 6.85z" fill="#007B6C"/><path d="M28.9 37.17a10.94 10.94 0 006.83-6.86 10.86 10.86 0 01-10.5.46 10.6 10.6 0 00-3.25 6.44 11 11 0 006.92-.04z" fill="#008579"/><path d="M32.36 15.02a11 11 0 01.13 3.4 10.87 10.87 0 017.9 6.16A10.95 10.95 0 0029.96 10c1.18 1.4 2.04 3.1 2.4 5.02z" fill="#F5822B"/><path d="M35.52 19.46c-.98-.5-2-.86-3.03-1.07a11.17 11.17 0 01-3 6.3 10.9 10.9 0 016.29 5.6 11.13 11.13 0 004.6-5.74 11.11 11.11 0 00-4.86-5.1z" fill="#F99F29"/><path d="M20.76 24.12c-.25.49-.45.97-.63 1.45l.08.15a10.92 10.92 0 019.3-1.04 10.9 10.9 0 002.98-6.28 10.98 10.98 0 00-11.73 5.72z" fill="#FEBE25"/><path d="M32.49 18.42A10.69 10.69 0 0029.96 10a10.95 10.95 0 00-9.82 15.57 10.95 10.95 0 0112.36-7.15z" fill="#F99F29"/></svg>