<svg viewBox="0 0 18 18"xmlns="http://www.w3.org/2000/svg" ><path fill="#F0F3FA" d="M0 0h18v18H0z"/><path d="M7.06 13.4a3.8 3.8 0 01-.07-1.34 3.6 3.6 0 01-2.14-1.86 3.65 3.65 0 003.04 4.78 3.74 3.74 0 01-.83-1.58z" fill="#007161"/><path d="M7 12.07c.1-.82.48-1.57 1.07-2.15-.7-.35-1.3-.93-1.67-1.68a3.63 3.63 0 00-1.55 1.96 3.65 3.65 0 002.14 1.87z" fill="#007B6C"/><path d="M9.29 12.05a3.7 3.7 0 01-2.3.01 3.63 3.63 0 00.9 2.92 3.65 3.65 0 003.7-5.22l-.02.01a3.62 3.62 0 01-2.28 2.28z" fill="#007B6C"/><path d="M9.3 12.06a3.65 3.65 0 002.28-2.29 3.62 3.62 0 01-3.5.15 3.54 3.54 0 00-1.09 2.15c.72.24 1.53.25 2.3-.01z" fill="#008579"/><path d="M10.45 4.67c.08.38.09.77.05 1.14a3.62 3.62 0 012.63 2.05A3.66 3.66 0 009.65 3c.4.47.68 1.03.8 1.67z" fill="#F5822B"/><path d="M11.5 6.15a3.8 3.8 0 00-1-.35c-.1.8-.46 1.53-1 2.1.9.3 1.66.96 2.1 1.86a3.71 3.71 0 001.53-1.9 3.7 3.7 0 00-1.62-1.7z" fill="#F99F29"/><path d="M6.59 7.7c-.09.17-.15.33-.21.49l.02.05a3.64 3.64 0 013.1-.35c.54-.56.9-1.29 1-2.09a3.66 3.66 0 00-3.91 1.9z" fill="#FEBE25"/><path d="M10.5 5.8A3.67 3.67 0 009.65 3a3.65 3.65 0 00-3.27 5.19c.06-.16.12-.33.2-.48a3.65 3.65 0 013.92-1.9z" fill="#F99F29"/></svg>