<!-- by TradingView --><svg width="56" height="56" xmlns="http://www.w3.org/2000/svg"><path fill="#054734" d="M0 0h56v56H0z"/><path d="M20.208 28.336c-.056-.268.096-.335.18-.335H21c.232 0 .33.223.35.335.269 1.35 1.091 4.3 1.203 4.535.112.235.257.156.31 0 .309-1.406 1.204-4.458 1.244-4.65.04-.193.183-.227.25-.22h.62c.224 0 .233.223.21.335l-1.247 4.7c-.103.303-.497.92-1.248.962-.75.042-1.137-.624-1.237-.963-.392-1.455-1.191-4.431-1.247-4.7zM31 33.679V28.24c0-.182.14-.24.21-.241h.613c.157.016.185.17.177.241v.15c.467-.31 1.38-.37 1.672-.39h.01a.285.285 0 01.318.24c-.003.149-.008.291 0 .491a.246.246 0 01-.227.268c-.779 0-1.637.247-1.773.37v4.309a.298.298 0 01-.264.317c-.187.003-.229.007-.454 0-.225-.008-.282-.215-.282-.317zm9.996.834v-6.166c0-.264-.144-.341-.216-.347h-.56c-.185.016-.227.238-.22.347v6.166c0 .412-.51.562-.736.489-.18-.06-.25.114-.264.208v.408a.312.312 0 00.183.31c.23.072.522.077.64.07 1.023-.032 1.208-1.004 1.173-1.485z" fill="#fff"/><path d="M39 31.231v-.87c-.017-.788-.738-2.361-2.332-2.361-2.001 0-2.656 1.556-2.664 2.36a55.797 55.797 0 000 1.328c.014.792.58 2.363 2.733 2.31a8.473 8.473 0 001.853-.178c.06-.016.185-.095.195-.291.008-.168.005-.252.001-.353l-.001-.054c0-.084-.061-.24-.304-.196-.304.055-1.952.153-2.361.03-.776-.233-1.12-.8-1.12-1.456h3.785c.071.003.215-.069.215-.269zm-4-.731c.008-.428.388-1.493 1.5-1.504 1.112-.01 1.5 1.08 1.497 1.504H35zm-8.543-2.333c.307-.062 1.056-.181 1.6-.166.681.02 1.832.117 1.943 1.828v3.87c.006.094-.027.285-.219.295-.18.01-.352.005-.506.001h-.032c-.07-.011-.239-.099-.239-.364-.18.155-.855.374-1.423.363-.709-.012-1.608-.363-1.58-1.773.028-1.41.972-1.721 1.82-1.721H29v-.786c-.013-.19-.34-.747-.871-.742-.665.006-1.14.032-1.553.096-.086.023-.263.012-.285-.217v-.452c-.006-.055.018-.179.166-.232zM29 31.43h-1.1c-.31-.025-.923.113-.9.86.03.934 1.393.774 2 .387V31.43zM13.25 34v-5.778h.5V34h-.5zm0-7.223v-.53h.5v.53h-.5zm3.818 1.743a6.305 6.305 0 00-1.616.163l-.115-.486a6.802 6.802 0 011.754-.177c.317.014.637.063.912.169.269.104.514.27.659.533.08.11.161.297.224.55.07.281.122.665.122 1.166V34h-.5v-.494c-.529.26-1.186.502-1.792.502-.387 0-.773-.1-1.084-.376-.311-.274-.518-.696-.603-1.28-.073-.5.049-.903.319-1.206.261-.294.639-.47 1.035-.575.682-.18 1.5-.17 2.125-.108v-.025a4.5 4.5 0 00-.107-1.046c-.061-.245-.127-.355-.142-.374l-.017-.02-.012-.024c-.07-.132-.201-.24-.407-.319a2.46 2.46 0 00-.755-.136zm1.44 2.445c-.601-.063-1.378-.075-1.997.09-.348.091-.62.232-.79.423-.16.18-.251.431-.197.802.074.506.242.804.439.978.196.173.45.25.754.25.575 0 1.254-.275 1.791-.565v-1.977z" fill="#fff"/><rect x="40" y="26" width="1" height="1" rx=".3" fill="#fff"/><path fill-rule="evenodd" d="M44.5 28a2.5 2.5 0 00-2.5 2.5v1a2.5 2.5 0 005 0v-1a2.5 2.5 0 00-2.5-2.5zm0 1a1.5 1.5 0 00-1.5 1.5v1a1.5 1.5 0 003 0v-1a1.5 1.5 0 00-1.5-1.5z" fill="#fff"/><path d="M46.126 15.023c-.537.416-.988.942-1.204 1.297l-.003.005-4.894 7.693c-1.304 1.87-3.006 1.787-3.747 1.469-.269-.09-.683-.345-1.15-.807-.478-.476-1.022-1.182-1.532-2.187-.492-.968-.984-1.68-1.395-2.17-.416-.499-.736-.754-.877-.828l-.009-.004-.007-.005c-.9-.561-1.826-.244-2.155.032-.465.511-1.553 1.706-2.269 2.487-.78.851-1.659 1-2.14 1h-2.517v-.5h2.516c.381 0 1.11-.115 1.773-.838.72-.786 1.818-1.992 2.277-2.497l.01-.01.011-.01c.459-.4 1.63-.787 2.75-.093.23.123.595.436 1.02.944.437.522.95 1.266 1.457 2.265.489.962 1.002 1.624 1.44 2.059.443.44.797.637.962.69l.013.004.012.005c.537.236 1.983.373 3.144-1.288l4.884-7.678c.251-.411.744-.98 1.324-1.43.57-.444 1.286-.817 1.97-.728l-.065.496c-.476-.062-1.052.202-1.599.627z" fill="#FFBF48"/><path d="M13.518 26.502a.251.251 0 10-.033 0 .251.251 0 10.033 0zm-1.338 1.671a.251.251 0 10-.479-.144l-1.467 5.249a.574.574 0 01-.18.213c-.032.019-.052.018-.072.012a.305.305 0 01-.12-.084.738.738 0 01-.105-.141L8.26 28.073a.25.25 0 10-.496.072H7.76l1.532 5.324.013.023c.047.09.115.189.2.276a.794.794 0 00.334.213.578.578 0 00.467-.058c.147-.086.272-.233.38-.428l.014-.025 1.48-5.297zm1.57.078a.251.251 0 11-.502 0 .251.251 0 01.502 0zm1.9.19a.251.251 0 11-.502 0 .251.251 0 01.502 0zm27.059-14.007c1.994-.287 4.298-.131 4.985-.044a.251.251 0 10.064-.496c-.716-.09-3.072-.25-5.126.046l-.011.002c-1.4.266-2.256 1.102-2.807 1.973l-3.425 5.678-.002.002v.001l-.003.005-.011.018a11.166 11.166 0 01-.208.332c-.14.217-.335.51-.557.808-.223.3-.47.604-.712.846-.25.25-.466.406-.628.455a1.506 1.506 0 01-1.009-.044c-.429-.169-.962-.574-1.512-1.49a19.157 19.157 0 00-1.546-2.228c-.46-.563-.863-.963-1.138-1.145-1.082-.715-2.09-.313-2.594.127-.261.228-.604.585-.968.965l-.076.08c-.397.414-.822.854-1.22 1.211a4.22 4.22 0 01-1.244.748c-.38.152-.71.225-.896.239l-.02-.001a.251.251 0 00-.038.5v.003h.038a.25.25 0 00.024-.002c.264-.013.66-.108 1.077-.274a4.716 4.716 0 001.393-.84c.414-.373.851-.826 1.247-1.239l.067-.07c.373-.39.7-.731.944-.943.387-.337 1.147-.644 1.99-.087.21.138.573.488 1.027 1.044.448.55.972 1.283 1.505 2.17.589.98 1.198 1.477 1.757 1.697.561.22 1.038.148 1.337.058.287-.088.578-.322.837-.58.266-.267.529-.591.76-.901a15.529 15.529 0 00.791-1.18l.012-.021.004-.005v-.002l3.42-5.67c.5-.789 1.25-1.512 2.472-1.746z" fill="#fff"/></svg>